# xmcd CD database file
#
# Track frame offsets:
#	150
#	16277
#	32207
#	49517
#	74127
#	95972
#	118285
#	145407
#	158237
#	174792
#	193165
#	213732
#	229002
#	251402
#	274305
#	296775
#
# Disc length: 4191 seconds
#
# Revision: 1
# Processed by: cddbd v1.5.2PL0 Copyright (c) Steve Scherf et al.
# Submitted via: FreeDB 13.2
#
DISCID=00105d10
DTITLE=Sky High (Clas Yngstrom) - Freedom
DYEAR=2002
DGENRE=Blues
TTITLE0=Back to the Start
TTITLE1=Boogie for Peace
TTITLE2=Freedom
TTITLE3=Jimi
TTITLE4=Sisters and Brothers
TTITLE5=Bluestown
TTITLE6=Blues for the Green
TTITLE7=I'm Still Rockin'
TTITLE8=Go On Home
TTITLE9=I Ain't Beggin
TTITLE10=You Can't Break Me
TTITLE11=Evil Eye
TTITLE12=Money Blues
TTITLE13=I Want You
TTITLE14=All along the Watchtower
TTITLE15=Restless Love
EXTD=YEAR: 2002
EXTT0=
EXTT1=
EXTT2=
EXTT3=
EXTT4=
EXTT5=
EXTT6=
EXTT7=
EXTT8=
EXTT9=
EXTT10=
EXTT11=
EXTT12=
EXTT13=
EXTT14=
EXTT15=
PLAYORDER=
